<mxfile host="app.diagrams.net" modified="2022-06-03T07:47:10.024Z" agent="5.0 (Windows NT 10.0; WOW64) AppleWebKit/537.36 (KHTML, like Gecko) Chrome/70.0.3538.25 Safari/537.36 Core/1.70.3880.400 QQBrowser/10.8.4554.400" etag="oFAFUjQKffPTNaJ_ydPX" version="18.2.0" type="github">
  <diagram id="LCvASt3UgwcCsNzlavFO" name="第 1 页">
    <mxGraphModel dx="702" dy="529" grid="1" gridSize="10" guides="1" tooltips="1" connect="1" arrows="1" fold="1" page="1" pageScale="1" pageWidth="827" pageHeight="1169" math="0" shadow="0">
      <root>
        <mxCell id="0" />
        <mxCell id="1" parent="0" />
        <mxCell id="iCcUatJ16dfGF_T-fvzp-1" value="" style="rounded=1;whiteSpace=wrap;html=1;" vertex="1" parent="1">
          <mxGeometry x="90" y="150" width="150" height="250" as="geometry" />
        </mxCell>
        <mxCell id="iCcUatJ16dfGF_T-fvzp-2" value="&lt;font color=&quot;#000000&quot; style=&quot;font-size: 15px;&quot;&gt;Comment库&lt;/font&gt;" style="text;html=1;strokeColor=none;fillColor=none;align=center;verticalAlign=middle;whiteSpace=wrap;rounded=0;fontColor=#FFFFFF;fontSize=15;" vertex="1" parent="1">
          <mxGeometry x="100" y="160" width="100" height="20" as="geometry" />
        </mxCell>
        <mxCell id="iCcUatJ16dfGF_T-fvzp-3" value="" style="rounded=1;whiteSpace=wrap;html=1;" vertex="1" parent="1">
          <mxGeometry x="290" y="150" width="150" height="250" as="geometry" />
        </mxCell>
        <mxCell id="iCcUatJ16dfGF_T-fvzp-4" value="&lt;font color=&quot;#000000&quot; style=&quot;font-size: 15px;&quot;&gt;User库&lt;/font&gt;" style="text;html=1;strokeColor=none;fillColor=none;align=center;verticalAlign=middle;whiteSpace=wrap;rounded=0;fontColor=#FFFFFF;fontSize=15;" vertex="1" parent="1">
          <mxGeometry x="300" y="160" width="100" height="20" as="geometry" />
        </mxCell>
        <mxCell id="iCcUatJ16dfGF_T-fvzp-5" value="" style="rounded=1;whiteSpace=wrap;html=1;" vertex="1" parent="1">
          <mxGeometry x="490" y="150" width="150" height="250" as="geometry" />
        </mxCell>
        <mxCell id="iCcUatJ16dfGF_T-fvzp-6" value="&lt;font color=&quot;#000000&quot;&gt;Vlog库&lt;/font&gt;" style="text;html=1;strokeColor=none;fillColor=none;align=center;verticalAlign=middle;whiteSpace=wrap;rounded=0;fontColor=#FFFFFF;fontSize=15;" vertex="1" parent="1">
          <mxGeometry x="500" y="160" width="100" height="20" as="geometry" />
        </mxCell>
        <mxCell id="iCcUatJ16dfGF_T-fvzp-7" value="" style="rounded=1;whiteSpace=wrap;html=1;fontSize=15;fontColor=#000000;fillColor=#FF6666;" vertex="1" parent="1">
          <mxGeometry x="112.5" y="255" width="107.5" height="45" as="geometry" />
        </mxCell>
        <mxCell id="iCcUatJ16dfGF_T-fvzp-8" value="评论表&lt;br&gt;Comment" style="text;html=1;strokeColor=none;fillColor=none;align=center;verticalAlign=middle;whiteSpace=wrap;rounded=0;fontSize=15;fontColor=#000000;" vertex="1" parent="1">
          <mxGeometry x="135.5" y="260" width="60" height="30" as="geometry" />
        </mxCell>
        <mxCell id="iCcUatJ16dfGF_T-fvzp-9" value="" style="rounded=1;whiteSpace=wrap;html=1;fontSize=15;fontColor=#000000;fillColor=#FF6666;" vertex="1" parent="1">
          <mxGeometry x="312.5" y="200" width="105" height="40" as="geometry" />
        </mxCell>
        <mxCell id="iCcUatJ16dfGF_T-fvzp-10" value="用户表&lt;br&gt;User" style="text;html=1;strokeColor=none;fillColor=none;align=center;verticalAlign=middle;whiteSpace=wrap;rounded=0;fontSize=15;fontColor=#000000;" vertex="1" parent="1">
          <mxGeometry x="335.5" y="205" width="60" height="30" as="geometry" />
        </mxCell>
        <mxCell id="iCcUatJ16dfGF_T-fvzp-11" value="" style="rounded=1;whiteSpace=wrap;html=1;fontSize=15;fontColor=#000000;fillColor=#FF6666;" vertex="1" parent="1">
          <mxGeometry x="312.5" y="260" width="105" height="40" as="geometry" />
        </mxCell>
        <mxCell id="iCcUatJ16dfGF_T-fvzp-12" value="粉丝表&lt;br&gt;Fans" style="text;html=1;strokeColor=none;fillColor=none;align=center;verticalAlign=middle;whiteSpace=wrap;rounded=0;fontSize=15;fontColor=#000000;" vertex="1" parent="1">
          <mxGeometry x="335.5" y="265" width="60" height="30" as="geometry" />
        </mxCell>
        <mxCell id="iCcUatJ16dfGF_T-fvzp-13" value="" style="rounded=1;whiteSpace=wrap;html=1;fontSize=15;fontColor=#000000;fillColor=#FF6666;" vertex="1" parent="1">
          <mxGeometry x="512.5" y="190" width="105" height="40" as="geometry" />
        </mxCell>
        <mxCell id="iCcUatJ16dfGF_T-fvzp-14" value="视频表&lt;br&gt;Vlog" style="text;html=1;strokeColor=none;fillColor=none;align=center;verticalAlign=middle;whiteSpace=wrap;rounded=0;fontSize=15;fontColor=#000000;" vertex="1" parent="1">
          <mxGeometry x="535.5" y="195" width="60" height="30" as="geometry" />
        </mxCell>
        <mxCell id="iCcUatJ16dfGF_T-fvzp-18" value="" style="rounded=1;whiteSpace=wrap;html=1;fontSize=15;fontColor=#000000;fillColor=#FF6666;" vertex="1" parent="1">
          <mxGeometry x="506.25" y="255" width="117.5" height="45" as="geometry" />
        </mxCell>
        <mxCell id="iCcUatJ16dfGF_T-fvzp-19" value="我喜欢的视频表&lt;br&gt;My Vlog" style="text;html=1;strokeColor=none;fillColor=none;align=center;verticalAlign=middle;whiteSpace=wrap;rounded=0;fontSize=15;fontColor=#000000;" vertex="1" parent="1">
          <mxGeometry x="502.75" y="270" width="124.5" height="10" as="geometry" />
        </mxCell>
        <mxCell id="iCcUatJ16dfGF_T-fvzp-21" value="" style="rounded=1;whiteSpace=wrap;html=1;fontSize=15;fontColor=#000000;fillColor=#FF6666;" vertex="1" parent="1">
          <mxGeometry x="513" y="330" width="105" height="40" as="geometry" />
        </mxCell>
        <mxCell id="iCcUatJ16dfGF_T-fvzp-22" value="视频用户表&lt;br&gt;Vlog User" style="text;html=1;strokeColor=none;fillColor=none;align=center;verticalAlign=middle;whiteSpace=wrap;rounded=0;fontSize=15;fontColor=#000000;" vertex="1" parent="1">
          <mxGeometry x="513.5" y="335" width="104" height="30" as="geometry" />
        </mxCell>
      </root>
    </mxGraphModel>
  </diagram>
</mxfile>
